<?xml version="1.0" standalone="no"?>
<!DOCTYPE svg PUBLIC "-//W3C//DTD SVG 20010904//EN"
 "http://www.w3.org/TR/2001/REC-SVG-20010904/DTD/svg10.dtd">
<svg version="1.0" xmlns="http://www.w3.org/2000/svg"
 width="1024.000000pt" height="1024.000000pt" viewBox="0 0 1024.000000 1024.000000"
 preserveAspectRatio="xMidYMid meet">
<metadata>
Created by potrace 1.14, written by Peter Selinger 2001-2017
</metadata>
<g transform="translate(0.000000,1024.000000) scale(0.100000,-0.100000)"
fill="#000000" stroke="none">
<path d="M5310 9984 c-70 -54 -210 -202 -262 -275 -26 -36 -61 -93 -78 -127
-37 -75 -87 -222 -95 -282 -3 -25 -8 -52 -10 -60 -5 -16 -24 -142 -31 -205
-11 -96 -56 -320 -70 -346 -20 -40 -65 -60 -143 -65 -179 -11 -281 -57 -327
-146 -21 -41 -25 -126 -9 -188 7 -27 10 -51 7 -54 -9 -10 12 -7 94 14 76 18
228 44 324 55 232 25 723 25 899 -1 118 -17 228 -38 311 -59 52 -13 96 -22 98
-20 10 10 8 151 -2 184 -34 112 -127 182 -259 197 -92 9 -104 12 -123 22 -37
20 -52 48 -69 132 -9 47 -19 94 -21 105 -2 11 -9 49 -14 85 -6 36 -13 76 -15
90 -3 14 -5 59 -6 100 -2 165 49 336 172 582 l29 57 -114 75 c-62 40 -139 94
-170 120 -31 25 -60 46 -64 46 -4 0 -27 -16 -52 -36z"/>
<path d="M4969 8066 c-2 -2 -49 -7 -104 -11 -123 -8 -214 -21 -352 -49 -121
-25 -307 -92 -413 -149 -377 -204 -649 -612 -786 -1181 -30 -125 -29 -121 -40
-201 -4 -33 -8 -62 -9 -65 -3 -11 -16 -128 -20 -180 -13 -157 -15 -240 -5
-240 19 0 162 -70 216 -106 77 -51 151 -120 199 -185 l41 -56 32 62 c24 45 34
79 37 126 2 35 7 96 9 134 3 39 8 111 11 160 20 325 69 527 173 709 52 91 110
155 140 157 75 5 91 0 129 -34 52 -48 49 -97 -11 -186 -94 -142 -134 -255
-161 -456 -3 -16 -7 -82 -11 -145 -3 -63 -7 -136 -9 -162 -1 -27 -1 -48 0 -48
2 0 23 8 47 19 40 17 183 54 253 65 234 37 410 16 578 -72 40 -20 75 -38 79
-40 3 -2 9 6 12 16 12 35 95 110 158 140 89 43 244 85 396 107 17 3 47 7 65
10 17 3 57 7 87 10 30 3 66 8 80 10 144 25 491 26 580 2 141 -38 231 -105 277
-204 43 -94 33 -225 -23 -300 l-24 -31 56 -31 c36 -21 64 -47 82 -75 l28 -43
12 50 c27 115 119 170 287 170 59 0 115 -11 158 -32 l38 -19 -6 71 c-7 95 -22
234 -29 292 -2 11 -6 45 -10 75 -4 30 -11 78 -16 105 -5 28 -12 64 -15 80 -2
17 -16 80 -30 140 -14 61 -28 121 -31 134 -2 13 -25 84 -49 157 -62 189 -111
298 -219 489 -75 132 -263 349 -375 433 -20 15 -38 30 -41 33 -3 3 -39 28 -80
56 -197 132 -497 240 -750 269 -30 3 -64 9 -75 11 -24 7 -559 15 -566 9z
m-442 -632 c47 -30 60 -108 30 -174 -7 -13 -29 -34 -50 -46 -32 -18 -46 -20
-85 -12 -67 12 -95 44 -98 111 -4 65 21 112 69 132 38 16 101 11 134 -11z"/>
<path d="M3048 7885 c-2 -2 -32 -6 -68 -9 -186 -15 -406 -89 -562 -190 -249
-159 -448 -412 -593 -756 -62 -147 -150 -436 -180 -595 -16 -82 -34 -188 -40
-222 -3 -21 -7 -48 -9 -58 -2 -11 -7 -45 -11 -75 -3 -30 -8 -66 -10 -80 -4
-25 -15 -128 -20 -185 -6 -55 -17 -209 -20 -260 -22 -396 -26 -595 -11 -596
38 -5 159 11 171 22 6 6 11 42 12 82 1 40 4 142 7 227 3 85 8 232 11 325 12
336 15 357 68 427 50 65 114 93 212 93 65 -1 91 -6 138 -28 105 -48 172 -121
207 -227 21 -61 22 -78 17 -265 l-6 -200 34 86 c69 177 116 265 211 394 112
152 213 227 321 241 53 6 53 6 53 43 2 123 18 270 56 516 23 142 93 392 155
548 96 241 236 474 380 633 28 31 49 58 46 60 -5 6 -94 22 -194 35 -81 10
-368 21 -375 14z"/>
<path d="M6880 7879 c-30 -4 -79 -10 -108 -13 -29 -3 -57 -8 -62 -11 -6 -3 23
-39 63 -78 247 -242 432 -562 555 -962 36 -117 76 -268 88 -335 3 -14 11 -56
19 -95 24 -125 38 -219 50 -335 4 -36 8 -76 10 -89 2 -13 7 -67 11 -120 3 -53
8 -109 9 -126 2 -16 4 -36 4 -43 1 -7 25 11 54 41 113 116 283 133 450 44 105
-55 253 -223 303 -343 8 -20 17 -35 19 -33 1 2 19 49 40 104 46 128 141 350
168 395 22 36 75 90 90 90 8 0 6 22 -8 100 -1 8 -8 49 -15 90 -7 41 -20 111
-30 155 -11 45 -21 92 -24 105 -34 171 -138 466 -226 639 -200 398 -486 658
-842 766 -102 31 -125 35 -248 52 -62 8 -313 9 -370 2z"/>
<path d="M1469 7466 c-2 -2 -24 -7 -47 -11 -70 -10 -171 -44 -247 -82 -282
-141 -500 -449 -656 -926 -27 -84 -81 -286 -93 -347 -2 -14 -9 -45 -15 -70 -5
-25 -12 -61 -16 -80 -3 -19 -10 -57 -15 -85 -5 -27 -12 -68 -15 -90 -3 -22
-10 -69 -16 -105 -16 -105 -17 -112 -24 -180 -4 -36 -9 -72 -10 -80 -2 -8 -6
-44 -10 -80 -3 -36 -8 -76 -10 -90 -2 -14 -6 -56 -10 -95 -3 -38 -8 -86 -10
-105 -2 -19 -7 -64 -10 -100 -4 -36 -8 -76 -10 -90 -38 -256 -48 -739 -20
-960 3 -19 7 -55 10 -80 8 -63 26 -191 31 -215 3 -11 7 -36 10 -55 51 -324
213 -680 431 -950 151 -187 322 -310 498 -360 56 -16 92 -19 185 -16 111 3
163 15 251 56 l27 12 -63 87 c-74 103 -141 224 -189 345 -47 116 -109 342
-121 441 -3 22 -7 49 -9 60 -2 12 -7 48 -11 80 -3 33 -8 76 -10 95 -6 48 -17
222 -19 294 -2 51 -5 60 -21 61 -152 12 -261 101 -270 219 -2 22 -10 97 -18
166 -9 68 -14 127 -11 132 3 4 -15 20 -38 35 -170 109 -204 305 -75 433 l40
40 -7 123 c-4 67 -9 136 -11 152 -19 150 -29 320 -29 490 1 133 4 167 19 198
23 49 74 97 122 114 57 21 177 18 251 -5 34 -11 63 -19 63 -18 1 0 2 15 4 31
1 17 5 53 9 80 4 28 9 68 12 90 7 53 23 154 29 185 3 14 8 45 11 70 3 25 8 48
10 51 2 3 6 21 9 40 14 83 69 285 110 406 78 231 169 427 278 596 27 43 46 81
43 85 -8 7 -310 15 -317 8z"/>
<path d="M8488 7463 c-16 -2 -28 -6 -28 -8 0 -1 25 -42 55 -90 181 -288 316
-652 381 -1020 20 -116 34 -209 38 -250 8 -74 13 -105 17 -109 2 -2 27 -15 55
-29 84 -42 130 -104 216 -293 97 -213 124 -295 194 -594 17 -76 64 -309 70
-352 8 -54 7 -419 -1 -541 -6 -84 -32 -133 -95 -176 -77 -52 -238 -79 -342
-58 l-38 8 0 -128 c-1 -212 -10 -386 -26 -528 -5 -45 -9 -76 -30 -210 -42
-280 -182 -611 -329 -779 -14 -16 -25 -32 -25 -36 0 -3 21 -14 48 -23 208 -73
404 -44 612 91 167 109 363 346 491 592 101 193 167 380 194 549 3 19 8 37 10
41 2 3 7 33 10 65 4 33 9 62 10 65 2 3 7 33 10 65 4 33 9 68 10 77 2 9 7 52
10 95 4 43 9 101 11 128 6 71 6 409 0 475 -3 30 -8 95 -11 144 -4 49 -8 96
-10 105 -1 9 -6 48 -10 86 -3 39 -8 84 -10 100 -4 30 -10 87 -20 200 -3 33 -8
76 -10 95 -2 19 -7 62 -10 95 -4 33 -8 71 -10 85 -2 14 -7 50 -10 80 -3 30 -8
66 -10 80 -3 14 -9 57 -15 95 -5 39 -12 81 -14 95 -3 14 -8 43 -11 65 -4 22
-9 54 -11 70 -3 17 -19 93 -35 170 -149 689 -391 1119 -739 1308 -66 36 -192
83 -252 93 -41 7 -303 12 -340 7z"/>
<path d="M5945 6149 c-382 -31 -670 -91 -786 -165 -21 -13 -50 -40 -66 -60
-24 -33 -28 -46 -28 -104 l0 -66 -60 50 c-129 110 -304 169 -484 165 -337 -8
-632 -138 -728 -322 l-28 -52 0 -495 c1 -546 10 -917 30 -1150 3 -40 12 -75
24 -90 41 -56 135 -86 301 -96 l75 -4 38 47 37 48 -5 160 c-4 88 -7 172 -8
187 -1 15 0 28 3 29 6 1 194 -91 325 -161 55 -29 138 -80 185 -113 109 -78
176 -105 276 -112 89 -7 131 8 167 57 27 36 28 132 2 173 -55 88 -182 183
-472 350 -95 55 -173 102 -173 105 0 10 17 27 120 119 180 162 270 255 289
296 10 22 44 76 75 120 132 184 163 275 143 417 -8 53 -32 125 -49 145 -6 7
15 0 45 -16 81 -43 133 -48 223 -23 l74 20 1 -36 c1 -21 3 -55 4 -77 2 -22 6
-186 9 -365 4 -179 8 -368 11 -420 5 -117 13 -330 20 -555 3 -93 8 -188 11
-210 8 -64 44 -127 92 -160 39 -27 52 -30 141 -33 84 -4 103 -1 138 17 52 26
77 62 91 126 10 47 9 417 -2 700 -9 207 -17 410 -21 510 -3 55 -7 211 -11 348
l-6 247 38 1 c136 4 278 -2 296 -12 12 -7 48 -12 80 -11 95 0 173 51 199 129
50 152 -43 284 -236 333 -58 15 -268 19 -400 9z m-1232 -626 c14 -14 17 -25
12 -52 -16 -84 -136 -276 -257 -408 -59 -65 -206 -213 -212 -213 -2 0 -4 119
-4 265 l0 265 30 30 c41 41 162 96 261 119 90 21 141 19 170 -6z"/>
<path d="M4525 5451 c-67 -19 -140 -51 -170 -74 -18 -14 -20 -28 -20 -172 l-1
-156 46 48 c100 104 207 254 247 346 12 26 11 27 -15 26 -15 0 -54 -8 -87 -18z"/>
<path d="M1920 5934 c-69 -32 -100 -91 -105 -203 -5 -101 -14 -357 -20 -566
-8 -243 -13 -357 -18 -361 -10 -11 -168 -35 -263 -40 l-104 -7 -1 37 c-1 20
-2 39 -3 44 -5 18 -16 188 -21 307 -17 400 -17 399 -49 471 -44 97 -137 152
-259 155 -105 2 -161 -33 -175 -112 -12 -67 -2 -437 14 -522 4 -22 13 -149 22
-301 5 -78 4 -122 -3 -128 -63 -50 -78 -65 -92 -91 -20 -39 -20 -125 0 -163
22 -43 70 -87 116 -110 47 -22 48 -25 56 -119 4 -38 8 -81 10 -95 13 -84 17
-120 20 -157 7 -106 98 -163 255 -157 87 3 145 27 181 77 28 38 29 43 25 133
-2 51 -6 96 -9 101 -3 4 -8 24 -11 43 -4 19 -12 65 -19 102 -15 74 -13 82 23
93 42 13 200 32 259 31 l56 -1 6 -110 c4 -60 12 -141 19 -180 6 -38 14 -94 16
-124 3 -33 11 -62 22 -74 26 -29 69 -58 94 -62 197 -38 291 -15 328 80 12 31
15 167 6 270 -3 33 -8 87 -11 120 -3 33 -7 70 -9 82 -11 53 -20 243 -19 403 0
158 4 263 19 505 3 44 6 152 8 240 4 183 -6 229 -69 303 -68 79 -215 122 -295
86z"/>
<path d="M2862 5920 c-190 -90 -416 -506 -487 -895 -31 -175 -39 -262 -40
-440 0 -191 8 -270 36 -356 61 -190 182 -292 423 -359 156 -43 285 -32 407 37
90 50 278 282 368 454 57 107 86 209 127 434 36 192 40 439 11 575 -59 274
-232 448 -552 554 -109 37 -211 35 -293 -4z m336 -415 c39 -100 56 -219 55
-380 0 -220 -34 -366 -129 -560 -80 -166 -204 -330 -242 -323 -18 3 -46 70
-57 133 -9 55 -10 226 -1 310 16 154 31 219 82 374 24 74 44 139 44 145 0 14
55 122 112 219 40 68 94 137 108 137 4 0 17 -25 28 -55z"/>
<path d="M3007 5113 c-10 -17 -68 -203 -72 -229 -10 -62 -15 -90 -21 -114 -10
-40 -17 -316 -10 -356 l7 -36 25 33 c14 19 45 69 70 111 l45 76 -6 94 c-6 102
-10 160 -21 288 -4 47 -8 97 -8 113 -1 29 -2 31 -9 20z"/>
<path d="M8741 5908 c-68 -12 -107 -48 -151 -144 -57 -121 -123 -292 -181
-472 -28 -86 -54 -165 -58 -176 -5 -12 -15 12 -34 79 -88 311 -294 529 -497
526 -66 -1 -75 -3 -120 -23 -49 -22 -99 -75 -126 -133 -20 -43 -60 -191 -78
-290 -23 -120 -76 -441 -81 -490 -4 -32 -8 -66 -10 -75 -4 -23 -14 -90 -20
-140 -4 -25 -8 -56 -10 -70 -2 -14 -6 -45 -10 -70 -12 -99 -18 -129 -41 -219
-32 -125 -36 -205 -14 -270 33 -99 89 -133 229 -138 104 -3 174 12 219 47 42
33 51 59 52 140 0 41 4 104 10 140 5 36 11 90 15 120 3 30 8 66 10 80 2 14 7
43 9 65 12 97 19 151 22 170 2 11 6 40 8 65 3 25 10 77 16 115 5 39 13 89 16
113 4 23 8 41 10 39 3 -3 37 -168 47 -232 11 -66 40 -195 83 -363 38 -154 48
-180 76 -209 44 -45 109 -65 209 -62 154 4 216 34 243 116 8 27 35 147 60 269
48 236 67 313 140 549 56 181 55 179 61 174 5 -6 62 -233 70 -279 3 -19 8 -42
10 -50 13 -48 21 -200 30 -550 2 -80 4 -150 4 -157 2 -26 62 -81 99 -90 73
-19 229 5 288 43 59 39 62 55 64 424 2 179 -15 329 -50 460 -8 29 -43 175 -55
230 -26 122 -61 228 -111 345 -80 187 -135 289 -172 322 -64 59 -182 88 -281
71z"/>
<path d="M7078 5674 c-2 -1 -29 -4 -59 -5 -71 -3 -117 -24 -147 -69 -27 -40
-26 -92 4 -190 26 -84 25 -416 -2 -590 -9 -64 -45 -194 -71 -260 -48 -122
-141 -270 -170 -270 -15 0 -38 35 -48 75 -5 17 -9 32 -10 35 -16 54 -23 358
-11 490 11 112 43 243 77 318 47 100 66 169 62 225 -9 127 -101 187 -283 187
-144 0 -187 -24 -219 -124 -40 -124 -90 -292 -95 -316 -3 -14 -10 -50 -16 -80
-24 -122 -34 -463 -18 -605 18 -149 76 -315 149 -421 15 -22 55 -67 88 -100
51 -49 73 -63 143 -87 117 -41 271 -46 373 -13 159 51 278 164 374 353 51 103
107 269 127 381 2 12 6 34 9 50 8 42 24 143 30 187 13 92 13 451 0 522 -24
132 -84 231 -167 274 -35 18 -114 40 -120 33z"/>
<path d="M6088 5632 l-36 -3 3 -107 c4 -159 6 -198 10 -187 2 6 18 60 35 120
18 61 40 124 50 142 18 31 18 31 -3 35 -12 1 -38 2 -59 0z"/>
<path d="M5286 5500 c-2 -3 -3 -41 -4 -84 -2 -126 -51 -243 -163 -390 -22 -28
-51 -76 -66 -106 -16 -34 -54 -82 -98 -125 -77 -76 -229 -215 -247 -226 -12
-7 -2 -29 13 -29 5 0 49 -24 97 -53 48 -29 94 -56 102 -59 31 -13 195 -128
250 -175 110 -94 151 -173 145 -277 -9 -154 -136 -230 -331 -197 -60 10 -189
61 -204 81 -18 23 -155 109 -265 166 -72 37 -136 71 -143 77 -7 5 -15 7 -19 4
-3 -4 -5 -67 -4 -141 2 -148 7 -135 -81 -231 -16 -16 -28 -33 -28 -37 0 -11
-144 -10 -210 1 -113 19 -126 23 -177 46 -87 40 -126 93 -137 190 -5 46 -14
208 -21 365 -2 36 -4 81 -5 100 l-2 35 -10 -30 c-18 -49 -68 -135 -127 -220
-64 -91 -65 -94 -144 -187 l-59 -69 6 -77 c4 -42 8 -88 10 -102 3 -14 7 -47
11 -75 6 -54 22 -155 30 -195 64 -325 121 -489 255 -725 65 -115 200 -285 330
-415 243 -242 539 -437 845 -558 111 -43 260 -91 260 -83 0 1 22 -5 50 -13 27
-9 51 -13 53 -11 2 2 14 0 26 -5 44 -16 155 -25 331 -25 199 0 267 7 410 40
236 54 462 181 635 354 99 100 121 127 193 236 138 208 246 465 322 765 34
134 78 357 89 458 3 28 9 69 11 90 12 81 14 100 21 182 9 109 9 105 -8 170 -9
30 -15 77 -13 103 1 26 -2 44 -6 40 -4 -4 -30 -36 -59 -71 -183 -223 -465
-291 -749 -182 -69 27 -94 43 -151 99 -37 36 -86 94 -107 128 l-40 62 -6 -117
c-6 -141 -24 -196 -79 -251 -52 -50 -113 -72 -209 -72 -159 -1 -256 46 -309
151 -30 59 -38 111 -45 305 -12 364 -16 462 -20 560 -2 55 -7 258 -11 450 -3
193 -8 352 -11 355 -6 6 -124 6 -127 0z"/>
<path d="M6785 5384 c-12 -60 -30 -111 -62 -182 -33 -75 -48 -120 -58 -182 -3
-19 -8 -42 -10 -50 -21 -77 -22 -496 -1 -518 2 -1 21 35 43 80 40 82 75 186
89 263 4 22 8 49 11 60 23 115 22 529 -1 552 -3 3 -8 -8 -11 -23z"/>
<path d="M8729 4433 c0 -5 -2 -15 -4 -23 -2 -8 -7 -31 -10 -50 -18 -102 -58
-247 -76 -280 -39 -69 -107 -104 -226 -116 -170 -17 -264 5 -337 81 -36 37
-62 84 -71 130 -13 68 -64 259 -65 248 -2 -7 -3 -16 -4 -20 -2 -9 -14 -103
-22 -173 -3 -25 -8 -56 -10 -70 -3 -14 -8 -76 -10 -139 -6 -124 -19 -164 -71
-213 -26 -25 -82 -53 -127 -65 -12 -3 -67 -8 -123 -10 l-103 -5 -1 -27 c0 -14
-2 -39 -5 -56 -26 -193 -50 -344 -59 -375 -2 -8 -6 -32 -9 -52 -3 -21 -11 -59
-17 -85 -6 -27 -12 -55 -14 -63 -1 -8 -8 -35 -15 -60 -7 -25 -13 -52 -15 -60
-9 -47 -39 -149 -74 -252 -119 -353 -282 -634 -494 -852 l-59 -61 49 -7 c53
-7 295 -2 358 7 128 19 176 29 285 60 513 148 952 481 1150 874 69 138 146
427 165 626 4 39 9 81 10 95 10 75 18 308 18 470 0 224 -6 530 -10 530 -2 0
-3 -3 -4 -7z"/>
<path d="M1687 4324 c-1 -1 -31 -5 -67 -8 -35 -4 -66 -9 -68 -11 -4 -3 14
-112 33 -205 3 -14 6 -55 6 -92 0 -75 -21 -135 -64 -180 -26 -28 -26 -28 -22
-170 3 -79 7 -165 9 -193 3 -27 8 -79 11 -115 10 -108 43 -279 74 -390 91
-325 257 -567 504 -738 309 -214 701 -365 1017 -393 150 -13 384 3 505 34 11
3 34 8 50 12 42 10 223 84 262 108 32 18 43 37 24 37 -10 0 -234 218 -297 290
-180 204 -329 475 -418 757 -27 86 -71 256 -80 308 -3 17 -10 57 -16 90 -18
103 -31 188 -36 245 -8 80 -7 79 -51 70 -109 -25 -328 17 -477 92 -70 35 -93
52 -157 113 l-46 44 0 -33 c0 -65 -24 -123 -69 -169 -67 -69 -137 -82 -303
-60 -103 14 -133 29 -198 95 -40 41 -42 46 -47 118 -3 41 -8 86 -10 100 -16
81 -26 161 -26 202 0 41 -3 47 -20 45 -12 -1 -22 -2 -23 -3z"/>
</g>
</svg>
